<svg width="800" height="977" viewBox="0 0 800 977" fill="none" xmlns="http://www.w3.org/2000/svg">
<g opacity="0.25">
<path d="M98.8898 728.5L482.89 299L347.89 185.5L47.3898 465V549L283.39 299L294.39 328.5L47.3898 595.5L98.8898 728.5Z" fill="url(#paint0_linear_30_166)"/>
<path d="M450.89 976.5L766.89 394L755.39 380.5L411.89 950.5L450.89 976.5Z" fill="url(#paint1_linear_30_166)"/>
<path d="M159.39 775L550.89 299L588.39 310.5L242.89 842.5L159.39 775Z" fill="url(#paint2_linear_30_166)"/>
</g>
<path opacity="0.15" d="M584.184 315.5L234.39 854.295L407.735 959.5L753.39 390.063C702.887 330.413 619.543 315.5 584.184 315.5Z" fill="url(#paint3_linear_30_166)"/>
<path d="M22.8897 732C-3.61026 751 22.8897 766.5 26.8897 769V781C4.38976 777.5 -9.11029 752.5 10.3897 728C25.9897 708.4 50.2231 711.5 60.3897 715.5L75.6176 721C110.542 745 185.89 788.2 207.89 769L219.589 758L228.89 747.109C248.056 735.739 285.19 703 280.39 663C275.59 623 292.056 615.667 300.89 617L302.89 625.5H295.89C292.89 625.667 286.69 627.9 285.89 635.5C285.223 639 283.99 647.4 284.39 653C284.89 660 287.39 680.5 285.89 684.5C284.39 688.5 277.89 715.5 260.89 728C256.89 732.597 245.59 743.561 232.39 750.645L223.845 762.5C216.209 778.5 192.027 781.5 180.89 781C163.375 778.667 117.8 765.6 75.6176 732C64.7083 725.167 38.8897 715.6 22.8897 732Z" fill="#C0AEDE"/>
<path d="M219.589 758L207.89 769C185.89 788.2 110.542 745 75.6176 721L60.3897 715.5C50.2231 711.5 25.9897 708.4 10.3897 728C-9.11029 752.5 4.38976 777.5 26.8897 781V769C22.8897 766.5 -3.61026 751 22.8897 732C38.8897 715.6 64.7083 725.167 75.6176 732C117.8 765.6 163.375 778.667 180.89 781C192.027 781.5 216.209 778.5 223.845 762.5M219.589 758C221.02 759.535 222.438 761.035 223.845 762.5M219.589 758L228.89 747.109M223.845 762.5L232.39 750.645M228.89 747.109C248.056 735.739 285.19 703 280.39 663C275.59 623 292.056 615.667 300.89 617L302.89 625.5H295.89C292.89 625.667 286.69 627.9 285.89 635.5C285.223 639 283.99 647.4 284.39 653C284.89 660 287.39 680.5 285.89 684.5C284.39 688.5 277.89 715.5 260.89 728C256.89 732.597 245.59 743.561 232.39 750.645M228.89 747.109C230.07 748.32 231.237 749.499 232.39 750.645" stroke="#C0AEDE" stroke-width="2" stroke-linecap="round"/>
<path d="M22.8897 732C-3.61026 751 22.8897 766.5 26.8897 769V781C4.38976 777.5 -9.11029 752.5 10.3897 728C25.9897 708.4 50.2231 711.5 60.3897 715.5L75.6176 721C76.5999 721.355 74.2083 727.814 72.8898 731C61.9805 724.167 38.8897 715.6 22.8897 732Z" fill="#EEE4FF" stroke="#EEE4FF" stroke-width="2" stroke-linecap="round"/>
<path d="M348.39 738.5C365.59 695.7 341.223 653.667 326.89 638H348.39C352.39 638 371.89 689 367.39 728C362.89 767 326.89 799 300.89 804.5C278.693 809.196 253.945 793.847 223.845 762.5C222.438 761.035 221.02 759.535 219.589 758C215.776 753.909 211.878 749.573 207.89 745C170.39 702 146.39 684.5 124.39 675.5C102.39 666.5 80.8898 682.5 77.8898 709.5C77.4977 713.029 76.7214 716.916 75.6176 721C74.8287 723.919 73.8726 726.939 72.77 730C63.6114 755.427 44.3475 783.716 26.8898 781V769C30.2896 771.125 53.5566 751.215 59.2337 728C60.2358 723.902 60.6899 719.701 60.3898 715.5C58.7898 693.1 77.7231 671.167 87.3898 663C105.223 654.667 152.59 653 199.39 713C209.958 726.549 219.825 737.804 228.89 747.109C230.07 748.32 231.237 749.499 232.39 750.645C261.595 779.68 281.945 788 289.89 788C302.223 789.333 331.19 781.3 348.39 738.5Z" fill="#EEE4FF" stroke="#EEE4FF" stroke-width="2" stroke-linecap="round"/>
<path d="M348.39 738.5C365.59 695.7 341.223 653.667 326.89 638H348.39C352.39 638 371.89 689 367.39 728C362.89 767 326.89 799 300.89 804.5C278.693 809.196 253.945 793.847 223.845 762.5C222.438 761.035 221.02 759.535 219.589 758C215.776 753.909 211.878 749.573 207.89 745C170.39 702 146.39 684.5 124.39 675.5C102.39 666.5 80.8898 682.5 77.8898 709.5C77.4977 713.029 76.7214 716.916 75.6176 721C74.8287 723.919 73.8726 726.939 72.77 730C63.6114 755.427 44.3475 783.716 26.8898 781C33.4766 778.667 51.8742 765.2 72.77 730C73.8726 726.939 74.8287 723.919 75.6176 721C76.7214 716.916 77.4977 713.029 77.8898 709.5C74.6898 698.3 79.2231 687.167 81.8898 683C99.4898 661.8 123.89 669.167 133.89 675.5C178.69 692.7 212.527 740.667 223.845 762.5C253.945 793.847 278.693 809.196 300.89 804.5C331.69 786.1 358.056 745.833 367.39 728C371.89 689 352.39 638 348.39 638C368.79 703.6 356.89 732.333 348.39 738.5Z" fill="#B09BD3"/>
<path d="M77.8898 709.5C80.8898 682.5 102.39 666.5 124.39 675.5C146.39 684.5 170.39 702 207.89 745C211.878 749.573 215.776 753.909 219.589 758C221.02 759.535 222.438 761.035 223.845 762.5M77.8898 709.5C77.4977 713.029 76.7214 716.916 75.6176 721C74.8287 723.919 73.8726 726.939 72.77 730M77.8898 709.5C74.6898 698.3 79.2231 687.167 81.8898 683C99.4898 661.8 123.89 669.167 133.89 675.5C178.69 692.7 212.527 740.667 223.845 762.5M300.89 804.5C326.89 799 362.89 767 367.39 728M300.89 804.5C278.693 809.196 253.945 793.847 223.845 762.5M300.89 804.5C331.69 786.1 358.056 745.833 367.39 728M367.39 728C371.89 689 352.39 638 348.39 638M348.39 638C345.19 638 332.723 638 326.89 638C341.223 653.667 365.59 695.7 348.39 738.5C356.89 732.333 368.79 703.6 348.39 638ZM72.77 730C63.6114 755.427 44.3475 783.716 26.8898 781C33.4766 778.667 51.8742 765.2 72.77 730Z" stroke="#B09BD3" stroke-linecap="round"/>
<path d="M123.89 675.5C123.223 671.667 122.59 663.3 125.39 660.5" stroke="#FF7470" stroke-width="2" stroke-linecap="round"/>
<path d="M131.89 679C131.223 675.5 130.49 666 132.89 662" stroke="#FF7470" stroke-width="2" stroke-linecap="round"/>
<path d="M351.89 767.5C349.89 764.833 342.69 758.4 337.89 758" stroke="#443876" stroke-width="2" stroke-linecap="round"/>
<path d="M409.89 439C391.09 451.8 357.723 469.667 343.39 477C337.89 485 330.19 505 343.39 521C356.59 537 379.223 533.667 388.89 530L433.39 485C442.223 475.333 463.29 450.6 460.89 435C458.49 419.4 435.223 419.333 425.89 420.5C423.09 428.5 414.056 436.167 409.89 439Z" fill="#BCABF9" stroke="#BCABF9"/>
<path d="M438.39 369L424.39 423C444.39 419 457.056 429.667 460.89 435.5C469.29 426.3 469.056 390.333 467.89 373.5C461.09 361.1 445.39 365.333 438.39 369Z" fill="#9A7EF3" stroke="#9A7EF3"/>
<path d="M435.39 474.5C398.59 520.1 355.723 514.5 338.89 506C342.09 534.8 372.556 536.667 387.39 534C405.223 514.167 443.39 474.5 450.39 464C456.673 454.575 462.89 438.5 460.89 437C460.39 435.667 458.49 432.6 454.89 431C454.89 436.6 451.89 445 450.39 448.5C441.19 450.1 436.556 466.5 435.39 474.5Z" fill="#8D7DCF" stroke="#8D7DCF" stroke-width="2" stroke-linecap="round"/>
<path d="M454.89 399C458.49 408.6 456.39 422.833 454.89 429.5C458.89 431.9 460.89 434.833 461.39 436L464.89 428.5C467.89 411.5 469.69 377.7 466.89 372.5C464.09 367.3 458.056 365.667 455.89 366C454.39 373.333 451.29 389.4 454.89 399Z" fill="#8167D7" stroke="#8167D7" stroke-width="2" stroke-linecap="round"/>
<path d="M428.39 347C425.19 352.6 434.723 363.333 439.89 368C455.09 360.4 463.556 366.167 465.89 370L468.39 351.5C472.39 339.5 459.056 332.833 451.89 331V326C447.09 316.8 441.89 322.167 439.89 326V344.5C437.39 343 431.59 341.4 428.39 347Z" fill="#D5BEF6" stroke="#D5BEF6"/>
<path d="M221.092 397.209C237.433 394.769 254.657 399.142 261.226 401.633L273.364 350.788C268.718 345.411 257.256 335.816 248.578 340.45C239.899 345.085 226.638 380.221 221.092 397.209Z" fill="#9A7EF3" stroke="#9A7EF3"/>
<path d="M261.96 317.017C259.815 318.946 254.927 332.422 252.751 338.919C264.378 341.889 269.929 347.092 271.252 349.322C276.575 343.974 287.444 332.404 288.335 328.916C289.449 324.556 286.418 324.298 285.45 324.05C284.674 323.852 281.718 326.537 280.336 327.905C278.399 327.409 278.567 326.076 278.894 325.472C282.983 324.28 290.051 320.582 285.616 315.32C280.072 308.743 264.64 314.605 261.96 317.017Z" fill="#D5BEF6" stroke="#D5BEF6"/>
<path d="M216.39 431.5C217.59 453.1 231.223 495.5 237.89 514C249.89 477.6 266.556 467.833 273.39 467.5C249.79 447.1 255.89 416 261.89 403C247.49 393.8 228.223 395.833 220.39 398C218.556 400.167 215.19 409.9 216.39 431.5Z" fill="#BCABF9" stroke="#BCABF9"/>
<path d="M249.39 482.5C218.99 447.7 241.556 435 255.39 432C255.39 441.6 268.39 460 274.89 468C246.49 475.2 241.723 508 242.89 523.5L238.39 514C239.59 496.8 245.39 485.167 249.39 482.5Z" fill="#9281CF" stroke="#9281CF" stroke-width="2" stroke-linecap="round"/>
<path d="M414.89 573.5C432.39 567.167 472.89 556.7 494.89 565.5C516.89 574.3 497.723 611.167 485.39 628.5C471.223 654.667 439.39 710.6 425.39 725C407.89 743 389.89 723 395.39 708C400.156 695.003 425.193 626.069 456.841 598.136L414.89 625V573.5Z" fill="#C9B9FB"/>
<path d="M414.89 573.5C432.39 567.167 472.89 556.7 494.89 565.5C516.89 574.3 497.723 611.167 485.39 628.5C471.223 654.667 439.39 710.6 425.39 725C407.89 743 389.89 723 395.39 708C400.89 693 433.39 603.5 471.89 588.5L414.89 625V573.5Z" stroke="#C9B9FB"/>
<path d="M469.89 614.5C477.09 584.5 456.89 589.333 445.89 595.5L416.39 658.5C414.556 663 408.69 676.5 399.89 694.5C391.09 712.5 394.89 722 397.89 724.5C418.89 700.333 462.69 644.5 469.89 614.5Z" fill="#AB9FDD" stroke="#AB9FDD" stroke-width="2" stroke-linecap="round"/>
<path d="M281.39 468.5C268.99 465.7 259.223 475.333 255.89 480.5C258.723 487.833 271.29 501.9 298.89 499.5C326.49 497.1 338.723 482.5 341.39 475.5C335.39 459.9 321.223 462.667 314.89 466C292.49 475.2 283.223 471.5 281.39 468.5Z" fill="#6433C0" stroke="#6433C0"/>
<path d="M255.89 480.5C235.09 506.5 237.223 520.333 240.89 524C281.29 603.6 328.723 631.833 347.39 636C358.19 653.6 379.89 651 389.39 647.5C412.99 658.7 447.556 666.833 461.89 669.5C457.056 702.833 448.39 773.6 452.39 790C457.39 810.5 474.39 809.5 486.89 797.5C499.39 785.5 516.89 665.5 500.39 644C487.19 626.8 433.223 585.833 407.89 567.5C382.29 537.9 353.223 494.5 341.89 476.5C337.89 484.167 323.09 499.6 295.89 500C268.69 500.4 257.89 487.167 255.89 480.5Z" fill="#E2DAFD" stroke="#E2DAFD"/>
<path d="M348.89 638.5C359.69 652.9 380.39 650.5 389.39 647.5C385.39 645.9 368.39 636.833 360.39 632.5C357.59 636.5 351.556 638.167 348.89 638.5Z" fill="#9D93CC" stroke="#A69DCF" stroke-width="2" stroke-linecap="round"/>
<path d="M403.39 629.5C388.19 598.7 383.89 603.5 377.39 607.5L364.39 613.5C363.89 616.333 361.89 623.5 357.89 629.5C387.49 650.3 439.556 665.5 461.89 670.5C458.056 691.667 450.59 742.4 451.39 776C452.19 809.6 469.723 808.333 478.39 803.5C501.39 717 494.39 671.5 489.89 662C485.39 652.5 469.39 653 439.39 653C415.39 653 405.39 637.333 403.39 629.5Z" fill="#C3BCE3" stroke="#C3BCE3" stroke-width="2" stroke-linecap="round"/>
<path d="M237.89 526.5C232.29 546.5 275.556 599.833 297.89 624C320.89 645 361.89 643 364.39 610C366.39 583.6 338.556 538.667 324.39 519.5C284.79 495.9 250.223 514.333 237.89 526.5Z" fill="#BBA8FA" stroke="#DEDEDE"/>
<path d="M323.39 425C323.39 424.2 320.39 419.667 318.89 417.5L315.39 414L281.89 452C284.69 457.2 283.39 465.5 282.39 469C291.99 474.2 307.723 468.833 314.39 465.5C309.19 460.7 312.223 455.833 314.39 454C317.556 450.333 324.29 443.1 325.89 443.5C327.49 443.9 326.556 438.333 325.89 435.5L325.39 430.5C325.723 430.5 326.59 430.1 327.39 428.5C328.19 426.9 326.723 426.167 325.89 426C325.09 426.4 323.89 425.5 323.39 425Z" fill="url(#paint4_linear_30_166)" stroke="#FDE9C2"/>
<path d="M322.89 416C319.396 418.329 314.993 415.196 313.06 413.181C319.623 420.225 315.699 421.665 312.89 421.5C315.69 425.9 313.39 427.667 311.89 428C304.69 427.2 309.556 436.333 312.89 441C316.49 441.8 314.39 446.333 312.89 448.5C316.49 449.7 313.723 454.667 311.89 457C313.09 461 310.056 461.667 308.39 461.5C306.79 463.9 303.39 462.5 301.89 461.5C300.29 466.3 296.556 465.833 294.89 465C292.49 467.4 288.556 465.333 286.89 464C284.89 466 280.723 465.5 278.89 465C276.056 463.333 269.49 456.7 265.89 443.5C262.29 430.3 264.39 419 265.89 415C267.09 414.2 268.39 406.667 268.89 403C270.298 403.352 270.467 406.432 270.443 407.699C270.902 406.2 274.187 402.358 275.89 400.5C277.223 399.333 279.89 397.4 279.89 399C279.89 400.6 278.223 403 277.39 404C278.556 403.5 281.49 401.7 283.89 398.5C286.29 395.3 292.223 395.833 294.89 396.5C293.69 398.5 291.39 399.667 290.39 400C290.39 401.5 297.39 399 300.39 397.5C302.79 396.3 308.056 397.667 310.39 398.5C309.328 399.562 307.279 400.765 305.217 401.809C307.679 401.071 310.303 400.913 311.89 402.5C314.69 405.3 322.39 404 325.89 403C326.056 402.833 325.99 403.2 324.39 406C323.217 408.053 321.255 408.977 319.766 409.324C322.238 409.644 325.87 412.579 327.94 414.561C328.165 414.683 328.311 414.843 328.39 415C328.25 414.86 328.1 414.713 327.94 414.561C327.208 414.162 325.644 414.164 322.89 416Z" fill="url(#paint5_linear_30_166)"/>
<path d="M312.89 413C314.723 415 319.29 418.4 322.89 416C326.49 413.6 328.056 414.333 328.39 415C326.056 412.667 320.79 408.3 318.39 409.5C319.723 409.5 322.79 408.8 324.39 406C325.99 403.2 326.056 402.833 325.89 403C322.39 404 314.69 405.3 311.89 402.5C309.09 399.7 303.056 402.333 300.39 404C302.89 403 308.39 400.5 310.39 398.5C308.056 397.667 302.79 396.3 300.39 397.5C297.39 399 290.39 401.5 290.39 400C291.39 399.667 293.69 398.5 294.89 396.5C292.223 395.833 286.29 395.3 283.89 398.5C281.49 401.7 278.556 403.5 277.39 404C278.223 403 279.89 400.6 279.89 399C279.89 397.4 277.223 399.333 275.89 400.5C274.056 402.5 270.39 406.8 270.39 408C270.39 409.5 270.89 403.5 268.89 403C268.39 406.667 267.09 414.2 265.89 415C264.39 419 262.29 430.3 265.89 443.5C269.49 456.7 276.056 463.333 278.89 465C280.723 465.5 284.89 466 286.89 464C288.556 465.333 292.49 467.4 294.89 465C296.556 465.833 300.29 466.3 301.89 461.5C303.39 462.5 306.79 463.9 308.39 461.5C310.056 461.667 313.09 461 311.89 457C313.723 454.667 316.49 449.7 312.89 448.5C314.39 446.333 316.49 441.8 312.89 441C309.556 436.333 304.69 427.2 311.89 428C313.39 427.667 315.69 425.9 312.89 421.5C315.723 421.667 319.69 420.2 312.89 413Z" stroke="#E99C65"/>
<circle cx="295.39" cy="430.5" r="57.5" fill="white" fill-opacity="0.25" stroke="white" stroke-width="5"/>
<ellipse cx="309.983" cy="387.93" rx="6.04485" ry="12.3579" transform="rotate(-72.7931 309.983 387.93)" fill="white"/>
<ellipse cx="328.563" cy="397.113" rx="4.5416" ry="5.28851" transform="rotate(-63.3417 328.563 397.113)" fill="white"/>
<path d="M324.89 536.5C282.89 514.1 250.723 530.667 240.89 541.5C239.29 547.9 272.223 593.667 287.39 614C294.103 623 319.89 641.5 341.89 637C359.49 633.4 363.89 613.5 359.89 603.5L324.89 536.5Z" fill="#7B55DE" stroke="#7B55DE" stroke-width="2"/>
<path d="M361.39 595.5C294.19 635.1 257.223 574 246.89 537L240.39 542C247.89 561 280.49 613.1 294.89 623.5C312.89 636.5 348.89 644 358.89 632.5C366.89 623.3 363.89 604 361.39 595.5Z" fill="#6330CB" stroke="#6330CB" stroke-width="2" stroke-linecap="round"/>
<path d="M299.39 528.5C302.39 554.291 312.99 608.633 351.39 631.5" stroke="#6842C5" stroke-width="3" stroke-linecap="round"/>
<path d="M256.39 533.5C260.526 557.316 279.716 611.059 323.39 635.5" stroke="#6842C5" stroke-width="3" stroke-linecap="round"/>
<path d="M340.39 566C311.59 581.6 274.723 578.833 259.89 575.5L262.89 580C295.29 588 329.39 576.667 342.39 570L340.39 566Z" fill="#6842C5" stroke="#6842C5" stroke-width="2"/>
<path d="M360.39 605C343.99 619.4 309.223 620.667 293.89 619.5L299.39 624.5C327.39 628.5 353.723 616.5 363.39 610L360.39 605Z" fill="#512CAC" stroke="#512CAC" stroke-width="2"/>
<path d="M402.39 562.5C396.39 576.1 374.223 591.5 363.89 597.5C358.39 605 363.89 610 365.39 611.5C366.89 613 413.89 582.5 413.39 570.5C412.99 560.9 405.89 561.167 402.39 562.5Z" fill="#FF7470" stroke="#D6433F" stroke-width="2"/>
<path d="M294.39 593C286.39 593 282.723 585.333 281.89 581.5C279.89 572.3 284.056 567.667 286.39 566.5C297.19 558.5 302.223 572.5 303.39 580.5C303.723 584.667 302.39 593 294.39 593Z" fill="#FF7470" stroke="#D6433F" stroke-width="2"/>
<path d="M342.89 550C346.723 548.667 355.79 546.8 361.39 550C368.39 554 381.89 592 414.39 611.5C446.89 631 479.39 644.5 491.89 649C504.39 653.5 502.39 676.5 501.89 680.5L479.39 803" stroke="#B5ACDC" stroke-width="2" stroke-linecap="round"/>
<path d="M362.39 568C365.89 567 373.19 563.6 374.39 558" stroke="#7D5FB7" stroke-width="5" stroke-linecap="round"/>
<path d="M368.39 576.5C371.89 575.5 379.19 572.1 380.39 566.5" stroke="#7D5FB7" stroke-width="5" stroke-linecap="round"/>
<path d="M398.89 517C386.056 514.333 359.79 501.1 357.39 469.5" stroke="white" stroke-width="5" stroke-linecap="round"/>
<path d="M412.89 505C399.39 500.5 372.49 485.5 372.89 461.5" stroke="white" stroke-width="5" stroke-linecap="round"/>
<path d="M223.39 465.5C228.556 457.667 242.69 442.6 257.89 445" stroke="white" stroke-width="5" stroke-linecap="round"/>
<path d="M227.39 481C231.723 471.667 245.19 453.5 264.39 455.5" stroke="white" stroke-width="5" stroke-linecap="round"/>
<ellipse cx="440.89" cy="384.5" rx="5.5" ry="4" fill="#FFC700"/>
<ellipse cx="438.89" cy="396.5" rx="5.5" ry="4" fill="#FFC700"/>
<ellipse cx="436.89" cy="408.5" rx="5.5" ry="4" fill="#FFC700"/>
<path d="M267.89 511.5C266.89 508.833 265.79 501.8 269.39 495" stroke="#B5ACDC" stroke-width="2" stroke-linecap="round"/>
<path d="M309.179 515.5C308.372 512.914 307.485 506.094 310.39 499.5" stroke="#B5ACDC" stroke-width="2" stroke-linecap="round"/>
<path d="M243.89 385.5C252.29 387.5 260.723 392 263.89 394C263.89 386.8 269.056 366 271.89 356.5C269.49 354.1 260.056 351.833 255.39 351L243.89 385.5Z" fill="white" stroke="white" stroke-linecap="round"/>
<path d="M257.39 390L251.89 379L260.39 377.5L257.39 374.5L261.89 373L257.39 366L261.89 365.38L258.89 361L268.39 360L263.89 353" stroke="#2BC828" stroke-linecap="round"/>
<path d="M504.89 669C495.69 669.4 496.723 662.167 498.39 658.5C501.19 655.7 505.223 656.667 506.89 657.5C512.09 663.5 507.723 667.667 504.89 669Z" fill="#FF7470" stroke="#D6433F" stroke-width="2" stroke-linecap="round"/>
<path d="M458.89 604.5C459.556 600.833 462.39 593.5 470.39 587.5" stroke="#9486D3" stroke-width="2" stroke-linecap="round"/>
<path d="M696.39 116L623.89 180.5L630.89 207C656.223 182.167 708.09 131.8 712.89 129C717.69 126.2 721.556 113.833 722.89 108V2H700.89C701.056 26.6667 701.29 78.9 700.89 90.5C700.49 102.1 697.723 112.333 696.39 116Z" fill="url(#paint6_linear_30_166)"/>
<path d="M621.39 183.5C620.723 174.333 637.09 153.2 707.89 142C724.056 141.167 752.09 128.2 726.89 77M715.89 2C710.902 8.81319 704.599 19.2722 699.345 31.5M693.89 178C709.89 161 712.89 145 693.89 101.5C684.238 79.4017 690.204 52.7738 699.345 31.5M699.345 31.5C694.693 23.6667 687.09 6.8 693.89 2" stroke="url(#paint7_linear_30_166)" stroke-width="4" stroke-linecap="round"/>
<circle cx="720.89" cy="138" r="20.5" fill="#A3EFFF" fill-opacity="0.38"/>
<circle cx="721.39" cy="138.5" r="6" fill="#75E6FF"/>
<path d="M650.333 173.242L682.636 335.725C682.798 336.538 683.289 337.249 683.994 337.687L771.011 391.841C773.241 393.229 776.051 391.284 775.538 388.709L736.753 193.825C736.531 192.707 735.694 191.812 734.593 191.515L654.057 169.761C651.909 169.18 649.899 171.059 650.333 173.242Z" fill="url(#paint8_radial_30_166)" stroke="#928DE2" stroke-width="8" stroke-linecap="round"/>
<path d="M612.89 165.5C624.39 184 647.39 240.6 647.39 319L612.89 165.5Z" fill="#928DE2" stroke="#928DE2" stroke-width="4" stroke-linecap="round"/>
<path d="M499.557 162.681L523.532 295.028C523.749 296.222 524.663 297.168 525.849 297.425L643.798 323.004C645.94 323.469 647.841 321.554 647.362 319.416L612.894 165.75C612.597 164.423 611.444 163.463 610.086 163.409L502.627 159.148C500.709 159.072 499.214 160.792 499.557 162.681Z" fill="url(#paint9_radial_30_166)" stroke="#928DE2" stroke-width="7" stroke-linecap="round"/>
<path opacity="0.88" d="M629.89 213.5L651.89 352.5L737.39 428L705.89 233.5L629.89 213.5Z" fill="#E4FDDA" stroke="#E4FDDA" stroke-width="2" stroke-linecap="round"/>
<path d="M346.011 183.581C352.874 217.621 364.958 278.008 367.437 292.073C367.725 293.705 369.233 295 370.89 295H484.741C486.631 295 488.05 293.274 487.685 291.42L462.943 165.811C462.634 164.238 461.142 163.187 459.556 163.424L348.511 180.033C346.813 180.287 345.672 181.899 346.011 183.581Z" fill="url(#paint10_radial_30_166)" stroke="#928DE2" stroke-width="6" stroke-linecap="round"/>
<path opacity="0.88" d="M271.39 226.5L291.39 330.5H415.89L396.89 216L271.39 226.5Z" fill="#9FE3FF" stroke="#9FE3FF" stroke-width="2" stroke-linecap="round"/>
<path d="M534.89 181.5L550.89 261.5L621.89 269.5L605.39 185L534.89 181.5Z" fill="#DDFFE8" stroke="#DDFFE8" stroke-width="4" stroke-linecap="round"/>
<path opacity="0.88" d="M497.39 204L519.89 317.5L621.89 343L595.89 209L497.39 204Z" fill="#D1FFD6" stroke="#D1FFD6" stroke-width="2" stroke-linecap="round"/>
<path d="M777.39 389C784.223 350 785.89 256.6 737.89 195L777.39 389Z" fill="#928DE2" stroke="#928DE2" stroke-width="4" stroke-linecap="round"/>
<path d="M463.39 165C474.556 184.333 494.99 236.9 487.39 292.5L463.39 165Z" fill="#928DE2" stroke="#928DE2" stroke-width="4" stroke-linecap="round"/>
<path d="M429.39 288.5C433.39 318.1 461.39 330.167 474.89 332.5C481.39 334.1 513.89 332.5 507.89 305C503.09 283 480.556 269.833 469.89 266C454.723 261.167 425.39 258.9 429.39 288.5Z" stroke="white" stroke-width="3" stroke-linecap="round"/>
<path d="M448.39 292.5C449.99 307.3 465.723 315 473.39 317C483.39 317 492.39 313 489.89 301C487.89 291.4 475.723 284 469.89 281.5C462.056 279 446.79 277.7 448.39 292.5Z" fill="white" stroke="white" stroke-width="3" stroke-linecap="round"/>
<path d="M413.89 211.5L426.39 261.5H499.89L487.89 205L413.89 211.5Z" fill="#DBFFFA" stroke="#DBFFFA" stroke-width="4" stroke-linecap="round"/>
<circle opacity="0.6" cx="338.39" cy="258.5" r="126" fill="url(#paint11_radial_30_166)"/>
<circle opacity="0.6" cx="673.39" cy="311.5" r="126" fill="url(#paint12_radial_30_166)"/>
<circle cx="528.89" cy="258" r="114.5" fill="url(#paint13_radial_30_166)"/>
<defs>
<linearGradient id="paint0_linear_30_166" x1="592.39" y1="272.5" x2="305" y2="698.5" gradientUnits="userSpaceOnUse">
<stop stop-color="white"/>
<stop offset="1" stop-color="white" stop-opacity="0"/>
</linearGradient>
<linearGradient id="paint1_linear_30_166" x1="592.39" y1="272.5" x2="305" y2="698.5" gradientUnits="userSpaceOnUse">
<stop stop-color="white"/>
<stop offset="1" stop-color="white" stop-opacity="0"/>
</linearGradient>
<linearGradient id="paint2_linear_30_166" x1="592.39" y1="272.5" x2="305" y2="698.5" gradientUnits="userSpaceOnUse">
<stop stop-color="white"/>
<stop offset="1" stop-color="white" stop-opacity="0"/>
</linearGradient>
<linearGradient id="paint3_linear_30_166" x1="677.842" y1="340.525" x2="354.086" y2="895.297" gradientUnits="userSpaceOnUse">
<stop stop-color="white"/>
<stop offset="1" stop-color="white" stop-opacity="0"/>
</linearGradient>
<linearGradient id="paint4_linear_30_166" x1="315.89" y1="414.5" x2="297.39" y2="471.5" gradientUnits="userSpaceOnUse">
<stop stop-color="#FDE9C2"/>
<stop offset="1" stop-color="#B6975B"/>
</linearGradient>
<linearGradient id="paint5_linear_30_166" x1="312.39" y1="401" x2="287.89" y2="457" gradientUnits="userSpaceOnUse">
<stop stop-color="#F2AC8E"/>
<stop offset="1" stop-color="#C16754"/>
</linearGradient>
<linearGradient id="paint6_linear_30_166" x1="673.39" y1="2" x2="673.39" y2="207" gradientUnits="userSpaceOnUse">
<stop stop-color="#9B96FA" stop-opacity="0"/>
<stop offset="1" stop-color="#9B96FA"/>
</linearGradient>
<linearGradient id="paint7_linear_30_166" x1="679.171" y1="2" x2="679.171" y2="183.5" gradientUnits="userSpaceOnUse">
<stop stop-color="#D6CBFD" stop-opacity="0"/>
<stop offset="0.303237" stop-color="#D6CBFD"/>
</linearGradient>
<radialGradient id="paint8_radial_30_166" cx="0" cy="0" r="1" gradientUnits="userSpaceOnUse" gradientTransform="translate(707.89 274) rotate(51.0605) scale(143.994 80.8776)">
<stop stop-color="#D4FE83"/>
<stop offset="1" stop-color="#F6FFE4"/>
</radialGradient>
<radialGradient id="paint9_radial_30_166" cx="0" cy="0" r="1" gradientUnits="userSpaceOnUse" gradientTransform="translate(558.39 254) rotate(-50.874) scale(86.367 78.2537)">
<stop offset="0.344904" stop-color="#77FD85"/>
<stop offset="1" stop-color="#B9FFCE"/>
</radialGradient>
<radialGradient id="paint10_radial_30_166" cx="0" cy="0" r="1" gradientUnits="userSpaceOnUse" gradientTransform="translate(401.89 248.5) rotate(-28.0016) scale(71.353 77.2991)">
<stop stop-color="#91FBED"/>
<stop offset="1" stop-color="#D6FFF7"/>
</radialGradient>
<radialGradient id="paint11_radial_30_166" cx="0" cy="0" r="1" gradientUnits="userSpaceOnUse" gradientTransform="translate(338.39 258.5) rotate(90) scale(126)">
<stop stop-color="#BBFFF6"/>
<stop offset="1" stop-color="#A2FCF0" stop-opacity="0"/>
</radialGradient>
<radialGradient id="paint12_radial_30_166" cx="0" cy="0" r="1" gradientUnits="userSpaceOnUse" gradientTransform="translate(673.39 311.5) rotate(90) scale(126)">
<stop stop-color="#E0FFA4"/>
<stop offset="1" stop-color="#E0FFA4" stop-opacity="0"/>
</radialGradient>
<radialGradient id="paint13_radial_30_166" cx="0" cy="0" r="1" gradientUnits="userSpaceOnUse" gradientTransform="translate(528.89 258) rotate(90) scale(114.5)">
<stop stop-color="#C0FFCE"/>
<stop offset="1" stop-color="#C0FFCE" stop-opacity="0"/>
</radialGradient>
</defs>
</svg>
