<svg width="140" height="140" viewBox="0 0 140 140" fill="none" xmlns="http://www.w3.org/2000/svg">
<rect width="140" height="140" rx="70" fill="#CDC0FF"/>
<path d="M31.8 73.0625H34.9641C40.7531 86.1943 53.925 95.375 69.3 95.375C84.675 95.375 97.8469 86.1943 103.636 73.0625H106.8C108.862 73.0625 110.55 71.3891 110.55 69.3437V47.0312C110.55 44.9859 108.862 43.3125 106.8 43.3125H103.636C97.8469 30.1807 84.675 21 69.3 21C53.925 21 40.7531 30.1807 34.9641 43.3125H31.8C29.7375 43.3125 28.05 44.9859 28.05 47.0312V69.3437C28.05 71.3891 29.7375 73.0625 31.8 73.0625ZM41.175 52.6094C41.175 47.4729 46.2141 43.3125 52.425 43.3125H86.175C92.3859 43.3125 97.425 47.4729 97.425 52.6094V58.1875C97.425 70.5059 87.3469 80.5 74.925 80.5H63.675C51.2531 80.5 41.175 70.5059 41.175 58.1875V52.6094ZM58.05 69.3437L60.8625 60.9766L69.3 58.1875L60.8625 55.3984L58.05 47.0312L55.2375 55.3984L46.8 58.1875L55.2375 60.9766L58.05 69.3437ZM93.5812 95.7004C86.5734 100.186 78.2531 130.846 69.3 130.846C60.3469 130.846 52.0266 100.186 45.0187 95.7004C29.1984 97.3506 16.8 110.482 16.8 126.613V128.844C16.8 135.003 21.839 140 28.05 140H46.8L53.3217 140C53.1023 140 62.8689 140 67.0174 140H80.713C84.8615 140 85.2783 140 85.2783 140L91.8 140H110.55C116.761 140 121.8 135.003 121.8 128.844V126.613C121.8 110.482 109.402 97.3506 93.5812 95.7004Z" fill="white"/>
<path d="M64.0025 123.579L64.5059 130.886L65.0093 133.135H74.0697V123.579L72.5596 112.338C73.7677 112.338 74.4053 111.214 74.5731 110.652C74.9087 109.34 75.6805 106.155 76.0832 103.907C76.4859 101.658 74.9087 101.096 74.0697 101.096H73.5664H65.0092C62.5931 101.096 62.3246 102.97 62.4924 103.907C62.6602 105.593 63.1971 109.303 64.0025 110.652C64.8079 112.001 65.6804 112.338 66.0159 112.338L64.0025 123.579Z" fill="white" stroke="white" stroke-width="0.5"/>
</svg>
