<svg width="80" height="71" viewBox="0 0 80 71" fill="none" xmlns="http://www.w3.org/2000/svg">
<path d="M72.9167 58.3333C74.5217 58.3341 76.065 58.9524 77.2266 60.06C78.3882 61.1677 79.0792 62.6798 79.1563 64.283C79.2335 65.8862 78.6909 67.4576 77.6409 68.6717C76.591 69.8857 75.1142 70.6493 73.5167 70.8042L72.9167 70.8333H6.25C4.64493 70.8325 3.10169 70.2143 1.94006 69.1066C0.778423 67.999 0.0874499 66.4869 0.0103156 64.8837C-0.0668187 63.2805 0.475799 61.709 1.52573 60.495C2.57566 59.281 4.05242 58.5174 5.65 58.3625L6.25 58.3333H72.9167ZM72.9167 29.1667C74.5743 29.1667 76.164 29.8251 77.3361 30.9972C78.5082 32.1693 79.1667 33.7591 79.1667 35.4167C79.1667 37.0743 78.5082 38.664 77.3361 39.8361C76.164 41.0082 74.5743 41.6667 72.9167 41.6667H6.25C4.5924 41.6667 3.00269 41.0082 1.83058 39.8361C0.65848 38.664 0 37.0743 0 35.4167C0 33.7591 0.65848 32.1693 1.83058 30.9972C3.00269 29.8251 4.5924 29.1667 6.25 29.1667H72.9167ZM72.9167 0C74.5743 0 76.164 0.65848 77.3361 1.83058C78.5082 3.00269 79.1667 4.5924 79.1667 6.25C79.1667 7.9076 78.5082 9.49732 77.3361 10.6694C76.164 11.8415 74.5743 12.5 72.9167 12.5H6.25C4.5924 12.5 3.00269 11.8415 1.83058 10.6694C0.65848 9.49732 0 7.9076 0 6.25C0 4.5924 0.65848 3.00269 1.83058 1.83058C3.00269 0.65848 4.5924 0 6.25 0H72.9167Z" fill="#E48AFF"/>
</svg>
